<?xml version="1.0" standalone="no"?>
<!DOCTYPE svg PUBLIC "-//W3C//DTD SVG 20010904//EN"
 "http://www.w3.org/TR/2001/REC-SVG-20010904/DTD/svg10.dtd">
<svg version="1.0" xmlns="http://www.w3.org/2000/svg"
 width="700.000000pt" height="700.000000pt" viewBox="0 0 700.000000 700.000000"
 preserveAspectRatio="xMidYMid meet">
<metadata>
Created by potrace 1.11, written by Peter Selinger 2001-2013
</metadata>
<g transform="translate(0.000000,700.000000) scale(0.100000,-0.100000)"
fill="#000000" stroke="none">
<path d="M1525 6985 c-125 -20 -136 -22 -205 -40 -328 -86 -582 -232 -815
-471 -133 -136 -121 -121 -210 -254 -65 -95 -120 -197 -168 -310 -18 -42 -65
-187 -73 -221 -42 -197 -49 -258 -49 -434 0 -226 19 -354 85 -560 34 -105 111
-274 154 -338 14 -21 26 -41 26 -44 0 -19 157 -211 239 -293 110 -110 205
-176 363 -255 94 -46 128 -69 199 -138 48 -45 135 -127 194 -182 115 -106 169
-157 250 -234 28 -26 120 -112 205 -191 85 -79 162 -151 171 -159 15 -15 223
-209 278 -260 14 -13 82 -77 151 -141 69 -65 141 -132 160 -150 19 -18 81 -76
138 -128 l102 -96 -513 -516 -514 -515 2 -430 c1 -379 3 -436 18 -480 29 -82
82 -131 154 -141 l41 -5 0 423 0 423 445 3 446 2 -6 38 c-10 63 -48 109 -123
145 -42 20 -64 22 -293 27 l-248 5 406 408 406 409 67 -64 c54 -52 154 -146
248 -233 6 -5 67 -62 135 -126 68 -64 140 -131 159 -149 19 -18 87 -81 151
-141 l116 -109 1 -424 0 -423 -218 -2 c-237 -2 -285 -9 -345 -56 -40 -30 -59
-63 -69 -117 l-7 -38 745 0 744 0 -5 33 c-12 79 -59 132 -143 162 -35 12 -92
16 -267 16 l-223 1 0 425 0 425 532 530 532 531 760 1 761 2 75 23 c41 13 82
28 90 35 8 6 28 18 44 26 43 22 115 109 141 171 13 30 26 79 30 109 l6 55
-2048 2047 c-1126 1127 -2073 2067 -2103 2089 -218 165 -440 253 -737 295
-150 20 -479 25 -588 9z m-328 -790 c159 -16 352 -102 460 -205 18 -16 34 -30
37 -30 2 0 28 21 58 46 29 25 82 62 118 82 386 217 870 119 1133 -231 82 -109
143 -244 163 -362 4 -22 8 -49 11 -60 5 -28 4 -190 -1 -217 -3 -13 -8 -40 -11
-61 -25 -181 -172 -410 -345 -539 -75 -55 -226 -125 -310 -143 -68 -14 -123
-19 -240 -21 -164 -3 -150 -1 -150 -18 0 -21 -231 -474 -301 -589 l-17 -28
-40 73 c-22 40 -61 114 -87 163 -27 50 -56 101 -65 115 -26 39 -97 192 -112
238 -7 23 -15 42 -18 43 -3 0 -122 2 -265 4 -143 2 -269 5 -280 8 -159 40
-221 65 -330 135 -76 49 -183 151 -232 222 -45 66 -99 176 -122 250 -52 168
-50 365 5 534 76 230 244 418 467 521 151 70 284 89 474 70z m3892 -2588 c577
-576 1052 -1051 1055 -1055 2 -4 -186 -6 -417 -6 l-422 1 -637 635 -638 634 0
424 c0 233 2 421 4 419 3 -2 477 -475 1055 -1052z"/>
<path d="M764 5710 c-51 -23 -92 -64 -112 -109 -21 -50 -24 -304 -4 -364 36
-107 157 -168 269 -134 49 15 116 83 131 133 14 48 16 280 3 338 -28 116 -176
187 -287 136z"/>
<path d="M2451 5704 c-53 -27 -94 -77 -108 -134 -15 -57 -8 -309 9 -350 34
-78 105 -124 193 -124 102 1 184 62 203 152 14 61 13 279 0 333 -12 46 -70
112 -115 131 -53 22 -128 18 -182 -8z"/>
</g>
</svg>
