<svg xmlns="http://www.w3.org/2000/svg" width="32" height="32" fill="none" xmlns:v="https://vecta.io/nano"><path d="M3.875 5.813c.271 0 .5.094.688.281s.281.417.281.688v.969c0 .271-.094.5-.281.688s-.417.281-.687.281-.5-.094-.687-.281-.281-.417-.281-.687v-.969c0-.271.094-.5.281-.687s.417-.281.688-.281zm7.766 0c.271 0 .5.094.688.281s.281.417.281.688v.969c0 .271-.094.5-.281.688s-.417.281-.687.281-.5-.094-.687-.281-.281-.417-.281-.687v-.969c0-.271.094-.5.281-.687s.417-.281.688-.281zm1.938-3.875L32 20.359a1.86 1.86 0 0 1-.187.844c-.115.24-.276.443-.484.609a2.3 2.3 0 0 1-.734.359c-.271.083-.563.125-.875.125h-6.438l-4.859 4.859v3.875h1.766c.323 0 .594.083.813.25s.328.406.328.719h-6.781c0-.312.109-.552.328-.719.229-.167.5-.25.813-.25h1.766v-3.875l-4.016-3.75-3.734 3.75h1.937c.313 0 .578.083.797.25.229.156.344.396.344.719H8.719V32c-.312 0-.552-.109-.719-.328-.167-.229-.25-.5-.25-.812v-3.703l4.688-4.687-8.031-7.5c-.375-.146-.734-.323-1.078-.531s-.672-.469-.984-.781c-.781-.781-1.37-1.661-1.766-2.641C.193 10.037 0 9.031 0 8s.193-2.036.578-3.016c.396-.979.984-1.859 1.766-2.641S4.005.979 4.984.594C5.964.198 6.969 0 8 0c.51 0 1.016.031 1.516.094.5.052.984.151 1.453.297.469.135.922.333 1.359.594.438.25.854.568 1.25.953zm-3 9.703c.542 0 1.052-.104 1.531-.312.49-.208.911-.495 1.266-.859.365-.365.651-.787.859-1.266a3.95 3.95 0 0 0 .313-1.562 3.95 3.95 0 0 0-.312-1.562c-.208-.49-.495-.911-.859-1.266-.354-.365-.776-.651-1.266-.859a3.8 3.8 0 0 0-1.531-.312c-.562 0-1.083.099-1.562.297-.479.188-.901.469-1.266.844a3.38 3.38 0 0 0-1.266-.844c-.479-.198-1-.297-1.562-.297a3.8 3.8 0 0 0-1.531.313c-.479.208-.901.495-1.266.859a3.96 3.96 0 0 0-.844 1.266 3.95 3.95 0 0 0-.312 1.563 3.95 3.95 0 0 0 .313 1.563c.208.479.49.901.844 1.266.365.364.786.651 1.266.859s.99.313 1.531.313h1.859c0 .042.021.115.063.219l.156.375.234.469.281.5.734 1.344.719-1.328.266-.5.234-.484.172-.375c.042-.104.063-.177.063-.219h.875zm13.672 8.719h3.875l-9.703-9.687v3.875l5.828 5.813z" fill="#3cb371"/></svg>